<svg width="14" height="14" viewBox="0 0 14 14" fill="none" xmlns="http://www.w3.org/2000/svg">
<path d="M5.26745 8.16668C5.03995 7.83418 4.91162 7.43168 4.91162 7.00002C4.91162 5.84502 5.84495 4.91168 6.99995 4.91168C8.15495 4.91168 9.08829 5.84502 9.08829 7.00002C9.08829 8.15502 8.15495 9.08835 6.99995 9.08835" stroke="#37C577" stroke-linecap="round" stroke-linejoin="round"/>
<path d="M10.2434 3.25501C9.25753 2.55501 8.1492 2.17584 7.00003 2.17584C4.94086 2.17584 3.0217 3.38918 1.68586 5.48918C1.16086 6.31168 1.16086 7.69418 1.68586 8.51668C3.0217 10.6167 4.94086 11.83 7.00003 11.83C9.0592 11.83 10.9784 10.6167 12.3142 8.51668C12.8392 7.69418 12.8392 6.31168 12.3142 5.48918" stroke="#37C577" stroke-linecap="round" stroke-linejoin="round"/>
</svg>
