<svg width="44" height="45" viewBox="0 0 44 45" fill="none" xmlns="http://www.w3.org/2000/svg">
<g filter="url(#filter0_d_0_1752)">
<rect x="5" y="5.5" width="32" height="32" rx="8" fill="white" shape-rendering="crispEdges"/>
<rect x="5.5" y="6" width="31" height="31" rx="7.5" stroke="#F2F3F3" shape-rendering="crispEdges"/>
<path d="M13.7915 13.1667H21.2082C21.8249 13.1667 22.3332 13.675 22.3332 14.2917V15.525C22.3332 15.975 22.0499 16.5333 21.7749 16.8167L19.3583 18.95C19.0249 19.2333 18.7999 19.7916 18.7999 20.2416V22.6583C18.7999 22.9917 18.5749 23.4417 18.2916 23.6167L17.5082 24.125C16.7749 24.575 15.7665 24.0667 15.7665 23.1667V20.1917C15.7665 19.8 15.5416 19.2917 15.3166 19.0083L13.1832 16.7583C12.8999 16.475 12.6749 15.975 12.6749 15.6333V14.3417C12.6666 13.675 13.1749 13.1667 13.7915 13.1667Z" stroke="#4A5157" stroke-width="1.5" stroke-miterlimit="10" stroke-linecap="round" stroke-linejoin="round"/>
<path d="M29.3333 19C29.3333 16.4 28.6833 14.7667 27.175 13.9167C26.75 13.675 25.9 13.4917 25.125 13.3667" stroke="#4A5157" stroke-width="1.5" stroke-linecap="round" stroke-linejoin="round"/>
<path d="M12.6667 21.5V24C12.6667 28.1667 14.3334 29.8333 18.5001 29.8333H23.5001C27.6667 29.8333 29.3334 28.1667 29.3334 24V22.3333" stroke="#4A5157" stroke-width="1.5" stroke-linecap="round" stroke-linejoin="round"/>
<path d="M21.8333 22.3333H25.9999" stroke="#4A5157" stroke-width="1.5" stroke-linecap="round" stroke-linejoin="round"/>
<path d="M20.1667 25.6667H26.0001" stroke="#4A5157" stroke-width="1.5" stroke-linecap="round" stroke-linejoin="round"/>
</g>
<defs>
<filter id="filter0_d_0_1752" x="0" y="0.5" width="44" height="44" filterUnits="userSpaceOnUse" color-interpolation-filters="sRGB">
<feFlood flood-opacity="0" result="BackgroundImageFix"/>
<feColorMatrix in="SourceAlpha" type="matrix" values="0 0 0 0 0 0 0 0 0 0 0 0 0 0 0 0 0 0 127 0" result="hardAlpha"/>
<feOffset dx="1" dy="1"/>
<feGaussianBlur stdDeviation="3"/>
<feComposite in2="hardAlpha" operator="out"/>
<feColorMatrix type="matrix" values="0 0 0 0 0 0 0 0 0 0 0 0 0 0 0 0 0 0 0.07 0"/>
<feBlend mode="normal" in2="BackgroundImageFix" result="effect1_dropShadow_0_1752"/>
<feBlend mode="normal" in="SourceGraphic" in2="effect1_dropShadow_0_1752" result="shape"/>
</filter>
</defs>
</svg>
