<svg width="20" height="21" viewBox="0 0 20 21" fill="none" xmlns="http://www.w3.org/2000/svg">
<path d="M1.66665 10.6833C1.57498 6.00001 5.27498 2.20834 9.95831 2.20834C14.6416 2.20834 18.3333 6.00001 18.3333 10.5917V15.725C18.3333 17.35 16.9833 18.7 15.3583 18.7C13.7333 18.7 12.3833 17.35 12.3833 15.725V13.3833C12.3833 12.575 13.0166 11.85 13.9166 11.85C14.725 11.85 15.45 12.4833 15.45 13.3833V15.9083" stroke="#4A5157" stroke-width="1.5" stroke-linecap="round" stroke-linejoin="round"/>
<path d="M4.55002 15.9083V13.475C4.55002 12.6667 5.18335 11.9417 6.08335 11.9417C6.89169 11.9417 7.61669 12.575 7.61669 13.475V15.8167C7.61669 17.4417 6.26669 18.7917 4.64169 18.7917C3.01669 18.7917 1.66669 17.4333 1.66669 15.8167V13.8333" stroke="#4A5157" stroke-width="1.5" stroke-linecap="round" stroke-linejoin="round"/>
</svg>
