<svg width="20" height="21" viewBox="0 0 20 21" fill="none" xmlns="http://www.w3.org/2000/svg">
<path d="M13.0667 3.79999C13.4667 4.39166 13.7 5.09999 13.7 5.86666C13.6917 7.86666 12.1167 9.49166 10.1333 9.55832C10.05 9.54999 9.95 9.54999 9.85834 9.55832C8.01667 9.49999 6.525 8.09166 6.325 6.29166C6.08334 4.14999 7.84167 2.16666 9.99167 2.16666" stroke="#4A5157" stroke-width="1.5" stroke-linecap="round" stroke-linejoin="round"/>
<path d="M5.825 12.6333C3.80833 13.9833 3.80833 16.1833 5.825 17.525C8.11667 19.0583 11.875 19.0583 14.1667 17.525C16.1833 16.175 16.1833 13.975 14.1667 12.6333C11.8917 11.1083 8.13333 11.1083 5.825 12.6333Z" stroke="#4A5157" stroke-width="1.5" stroke-linecap="round" stroke-linejoin="round"/>
</svg>
