<svg width="20" height="21" viewBox="0 0 20 21" fill="none" xmlns="http://www.w3.org/2000/svg">
<path d="M12.5 10.5C12.5 9.11667 11.3833 8 10 8C8.61667 8 7.5 9.11667 7.5 10.5C7.5 11.8833 8.61667 13 10 13C10.3417 13 10.675 12.9333 10.975 12.8" stroke="#4A5157" stroke-width="1.5" stroke-miterlimit="10" stroke-linecap="round" stroke-linejoin="round"/>
<path d="M5.73334 17.65L6.64167 18.175C7.3 18.5667 8.15 18.3333 8.54167 17.675L8.63334 17.5167C9.38334 16.2083 10.6167 16.2083 11.375 17.5167L11.4667 17.675C11.8583 18.3333 12.7083 18.5667 13.3667 18.175L14.8083 17.35C15.5667 16.9167 15.825 15.9417 15.3917 15.1917C14.6333 13.8833 15.25 12.8167 16.7583 12.8167C17.625 12.8167 18.3417 12.1083 18.3417 11.2333V9.76666C18.3417 8.9 17.6333 8.18333 16.7583 8.18333C15.9167 8.18333 15.35 7.85 15.15 7.325C14.9917 6.91666 15.0583 6.38333 15.3917 5.80833C15.825 5.05 15.5667 4.08333 14.8083 3.65L14.1333 3.26666" stroke="#4A5157" stroke-width="1.5" stroke-miterlimit="10" stroke-linecap="round" stroke-linejoin="round"/>
<path d="M11.3667 3.48333C10.6167 4.79166 9.38335 4.79166 8.62502 3.48333L8.53335 3.325C8.15002 2.66666 7.30002 2.43333 6.64169 2.825L5.20002 3.65C4.44169 4.08333 4.18335 5.05833 4.61669 5.81666C5.37502 7.11666 4.75835 8.18333 3.25002 8.18333C2.38335 8.18333 1.66669 8.89166 1.66669 9.76666V11.2333C1.66669 12.1 2.37502 12.8167 3.25002 12.8167C4.75835 12.8167 5.37502 13.8833 4.61669 15.1917" stroke="#4A5157" stroke-width="1.5" stroke-miterlimit="10" stroke-linecap="round" stroke-linejoin="round"/>
</svg>
